<svg id="visual" viewBox="0 0 960 540" width="960" height="540" xmlns="http://www.w3.org/2000/svg" xmlns:xlink="http://www.w3.org/1999/xlink" version="1.1"><path d="M0 66L13.3 65C26.7 64 53.3 62 80 58.3C106.7 54.7 133.3 49.3 160 44.8C186.7 40.3 213.3 36.7 240 32.2C266.7 27.7 293.3 22.3 320 20.7C346.7 19 373.3 21 400 22.8C426.7 24.7 453.3 26.3 480 33.5C506.7 40.7 533.3 53.3 560 57.8C586.7 62.3 613.3 58.7 640 58.7C666.7 58.7 693.3 62.3 720 63.2C746.7 64 773.3 62 800 53.8C826.7 45.7 853.3 31.3 880 25.2C906.7 19 933.3 21 946.7 22L960 23L960 0L946.7 0C933.3 0 906.7 0 880 0C853.3 0 826.7 0 800 0C773.3 0 746.7 0 720 0C693.3 0 666.7 0 640 0C613.3 0 586.7 0 560 0C533.3 0 506.7 0 480 0C453.3 0 426.7 0 400 0C373.3 0 346.7 0 320 0C293.3 0 266.7 0 240 0C213.3 0 186.7 0 160 0C133.3 0 106.7 0 80 0C53.3 0 26.7 0 13.3 0L0 0Z" fill="#667cff"></path><path d="M0 87L13.3 87C26.7 87 53.3 87 80 84.3C106.7 81.7 133.3 76.3 160 73.7C186.7 71 213.3 71 240 63.8C266.7 56.7 293.3 42.3 320 38.8C346.7 35.3 373.3 42.7 400 49C426.7 55.3 453.3 60.7 480 65.2C506.7 69.7 533.3 73.3 560 80.5C586.7 87.7 613.3 98.3 640 106.3C666.7 114.3 693.3 119.7 720 116C746.7 112.3 773.3 99.7 800 88C826.7 76.3 853.3 65.7 880 64.8C906.7 64 933.3 73 946.7 77.5L960 82L960 21L946.7 20C933.3 19 906.7 17 880 23.2C853.3 29.3 826.7 43.7 800 51.8C773.3 60 746.7 62 720 61.2C693.3 60.3 666.7 56.7 640 56.7C613.3 56.7 586.7 60.3 560 55.8C533.3 51.3 506.7 38.7 480 31.5C453.3 24.3 426.7 22.7 400 20.8C373.3 19 346.7 17 320 18.7C293.3 20.3 266.7 25.7 240 30.2C213.3 34.7 186.7 38.3 160 42.8C133.3 47.3 106.7 52.7 80 56.3C53.3 60 26.7 62 13.3 63L0 64Z" fill="#566fff"></path><path d="M0 109L13.3 107.2C26.7 105.3 53.3 101.7 80 98C106.7 94.3 133.3 90.7 160 94.3C186.7 98 213.3 109 240 109C266.7 109 293.3 98 320 89C346.7 80 373.3 73 400 76.7C426.7 80.3 453.3 94.7 480 101.8C506.7 109 533.3 109 560 118.8C586.7 128.7 613.3 148.3 640 153.7C666.7 159 693.3 150 720 141C746.7 132 773.3 123 800 113.2C826.7 103.3 853.3 92.7 880 92.7C906.7 92.7 933.3 103.3 946.7 108.7L960 114L960 80L946.7 75.5C933.3 71 906.7 62 880 62.8C853.3 63.7 826.7 74.3 800 86C773.3 97.7 746.7 110.3 720 114C693.3 117.7 666.7 112.3 640 104.3C613.3 96.3 586.7 85.7 560 78.5C533.3 71.3 506.7 67.7 480 63.2C453.3 58.7 426.7 53.3 400 47C373.3 40.7 346.7 33.3 320 36.8C293.3 40.3 266.7 54.7 240 61.8C213.3 69 186.7 69 160 71.7C133.3 74.3 106.7 79.7 80 82.3C53.3 85 26.7 85 13.3 85L0 85Z" fill="#4661ff"></path><path d="M0 168L13.3 175.3C26.7 182.7 53.3 197.3 80 193.8C106.7 190.3 133.3 168.7 160 156C186.7 143.3 213.3 139.7 240 147.7C266.7 155.7 293.3 175.3 320 174.5C346.7 173.7 373.3 152.3 400 141.7C426.7 131 453.3 131 480 135.5C506.7 140 533.3 149 560 165.2C586.7 181.3 613.3 204.7 640 214.5C666.7 224.3 693.3 220.7 720 207.2C746.7 193.7 773.3 170.3 800 164C826.7 157.7 853.3 168.3 880 172.8C906.7 177.3 933.3 175.7 946.7 174.8L960 174L960 112L946.7 106.7C933.3 101.3 906.7 90.7 880 90.7C853.3 90.7 826.7 101.3 800 111.2C773.3 121 746.7 130 720 139C693.3 148 666.7 157 640 151.7C613.3 146.3 586.7 126.7 560 116.8C533.3 107 506.7 107 480 99.8C453.3 92.7 426.7 78.3 400 74.7C373.3 71 346.7 78 320 87C293.3 96 266.7 107 240 107C213.3 107 186.7 96 160 92.3C133.3 88.7 106.7 92.3 80 96C53.3 99.7 26.7 103.3 13.3 105.2L0 107Z" fill="#3352ff"></path><path d="M0 185L13.3 198.5C26.7 212 53.3 239 80 239.8C106.7 240.7 133.3 215.3 160 200.8C186.7 186.3 213.3 182.7 240 187.2C266.7 191.7 293.3 204.3 320 201.7C346.7 199 373.3 181 400 175.7C426.7 170.3 453.3 177.7 480 185.8C506.7 194 533.3 203 560 211C586.7 219 613.3 226 640 231.3C666.7 236.7 693.3 240.3 720 234C746.7 227.7 773.3 211.3 800 201.5C826.7 191.7 853.3 188.3 880 189.3C906.7 190.3 933.3 195.7 946.7 198.3L960 201L960 172L946.7 172.8C933.3 173.7 906.7 175.3 880 170.8C853.3 166.3 826.7 155.7 800 162C773.3 168.3 746.7 191.7 720 205.2C693.3 218.7 666.7 222.3 640 212.5C613.3 202.7 586.7 179.3 560 163.2C533.3 147 506.7 138 480 133.5C453.3 129 426.7 129 400 139.7C373.3 150.3 346.7 171.7 320 172.5C293.3 173.3 266.7 153.7 240 145.7C213.3 137.7 186.7 141.3 160 154C133.3 166.7 106.7 188.3 80 191.8C53.3 195.3 26.7 180.7 13.3 173.3L0 166Z" fill="#1943ff"></path><path d="M0 255L13.3 266.7C26.7 278.3 53.3 301.7 80 299.8C106.7 298 133.3 271 160 257.5C186.7 244 213.3 244 240 247.7C266.7 251.3 293.3 258.7 320 249.7C346.7 240.7 373.3 215.3 400 209.8C426.7 204.3 453.3 218.7 480 232.2C506.7 245.7 533.3 258.3 560 266.5C586.7 274.7 613.3 278.3 640 286.5C666.7 294.7 693.3 307.3 720 301.8C746.7 296.3 773.3 272.7 800 254.7C826.7 236.7 853.3 224.3 880 227.2C906.7 230 933.3 248 946.7 257L960 266L960 199L946.7 196.3C933.3 193.7 906.7 188.3 880 187.3C853.3 186.3 826.7 189.7 800 199.5C773.3 209.3 746.7 225.7 720 232C693.3 238.3 666.7 234.7 640 229.3C613.3 224 586.7 217 560 209C533.3 201 506.7 192 480 183.8C453.3 175.7 426.7 168.3 400 173.7C373.3 179 346.7 197 320 199.7C293.3 202.3 266.7 189.7 240 185.2C213.3 180.7 186.7 184.3 160 198.8C133.3 213.3 106.7 238.7 80 237.8C53.3 237 26.7 210 13.3 196.5L0 183Z" fill="#0039f7"></path><path d="M0 298L13.3 311.5C26.7 325 53.3 352 80 353.8C106.7 355.7 133.3 332.3 160 315.2C186.7 298 213.3 287 240 304C266.7 321 293.3 366 320 376C346.7 386 373.3 361 400 338.5C426.7 316 453.3 296 480 296.8C506.7 297.7 533.3 319.3 560 332C586.7 344.7 613.3 348.3 640 364.5C666.7 380.7 693.3 409.3 720 416.5C746.7 423.7 773.3 409.3 800 391.3C826.7 373.3 853.3 351.7 880 340.8C906.7 330 933.3 330 946.7 330L960 330L960 264L946.7 255C933.3 246 906.7 228 880 225.2C853.3 222.3 826.7 234.7 800 252.7C773.3 270.7 746.7 294.3 720 299.8C693.3 305.3 666.7 292.7 640 284.5C613.3 276.3 586.7 272.7 560 264.5C533.3 256.3 506.7 243.7 480 230.2C453.3 216.7 426.7 202.3 400 207.8C373.3 213.3 346.7 238.7 320 247.7C293.3 256.7 266.7 249.3 240 245.7C213.3 242 186.7 242 160 255.5C133.3 269 106.7 296 80 297.8C53.3 299.7 26.7 276.3 13.3 264.7L0 253Z" fill="#0036e8"></path><path d="M0 341L13.3 353.7C26.7 366.3 53.3 391.7 80 394.3C106.7 397 133.3 377 160 360.8C186.7 344.7 213.3 332.3 240 345C266.7 357.7 293.3 395.3 320 401.5C346.7 407.7 373.3 382.3 400 360.7C426.7 339 453.3 321 480 321C506.7 321 533.3 339 560 353.5C586.7 368 613.3 379 640 396.2C666.7 413.3 693.3 436.7 720 443C746.7 449.3 773.3 438.7 800 423.3C826.7 408 853.3 388 880 378C906.7 368 933.3 368 946.7 368L960 368L960 328L946.7 328C933.3 328 906.7 328 880 338.8C853.3 349.7 826.7 371.3 800 389.3C773.3 407.3 746.7 421.7 720 414.5C693.3 407.3 666.7 378.7 640 362.5C613.3 346.3 586.7 342.7 560 330C533.3 317.3 506.7 295.7 480 294.8C453.3 294 426.7 314 400 336.5C373.3 359 346.7 384 320 374C293.3 364 266.7 319 240 302C213.3 285 186.7 296 160 313.2C133.3 330.3 106.7 353.7 80 351.8C53.3 350 26.7 323 13.3 309.5L0 296Z" fill="#0033d9"></path><path d="M0 519L13.3 520.8C26.7 522.7 53.3 526.3 80 526.3C106.7 526.3 133.3 522.7 160 519.2C186.7 515.7 213.3 512.3 240 510.7C266.7 509 293.3 509 320 507.2C346.7 505.3 373.3 501.7 400 506.2C426.7 510.7 453.3 523.3 480 527.8C506.7 532.3 533.3 528.7 560 527.7C586.7 526.7 613.3 528.3 640 530.2C666.7 532 693.3 534 720 534C746.7 534 773.3 532 800 529.2C826.7 526.3 853.3 522.7 880 523.7C906.7 524.7 933.3 530.3 946.7 533.2L960 536L960 366L946.7 366C933.3 366 906.7 366 880 376C853.3 386 826.7 406 800 421.3C773.3 436.7 746.7 447.3 720 441C693.3 434.7 666.7 411.3 640 394.2C613.3 377 586.7 366 560 351.5C533.3 337 506.7 319 480 319C453.3 319 426.7 337 400 358.7C373.3 380.3 346.7 405.7 320 399.5C293.3 393.3 266.7 355.7 240 343C213.3 330.3 186.7 342.7 160 358.8C133.3 375 106.7 395 80 392.3C53.3 389.7 26.7 364.3 13.3 351.7L0 339Z" fill="#0030cb"></path><path d="M0 541L13.3 541C26.7 541 53.3 541 80 541C106.7 541 133.3 541 160 541C186.7 541 213.3 541 240 541C266.7 541 293.3 541 320 541C346.7 541 373.3 541 400 541C426.7 541 453.3 541 480 541C506.7 541 533.3 541 560 541C586.7 541 613.3 541 640 541C666.7 541 693.3 541 720 541C746.7 541 773.3 541 800 541C826.7 541 853.3 541 880 541C906.7 541 933.3 541 946.7 541L960 541L960 534L946.7 531.2C933.3 528.3 906.7 522.7 880 521.7C853.3 520.7 826.7 524.3 800 527.2C773.3 530 746.7 532 720 532C693.3 532 666.7 530 640 528.2C613.3 526.3 586.7 524.7 560 525.7C533.3 526.7 506.7 530.3 480 525.8C453.3 521.3 426.7 508.7 400 504.2C373.3 499.7 346.7 503.3 320 505.2C293.3 507 266.7 507 240 508.7C213.3 510.3 186.7 513.7 160 517.2C133.3 520.7 106.7 524.3 80 524.3C53.3 524.3 26.7 520.7 13.3 518.8L0 517Z" fill="#002dbc"></path></svg>